<svg xmlns="http://www.w3.org/2000/svg" viewBox="-15 -25 45 45" width="500" height="500">
  <!-- Clawd v2 hat mishap: 7 s loop at 6 fps (42 frames). Same beats as clawd-hat-mishap.svg: hunched walk right and back, the wizard hat slides and tilts, the right pincer lifts to fix it, the hat snaps back in a burst of sparkles, eyes look around and blink. -->
  <defs>
    <style>
      .lg1m4 { animation: lg1m4 7s infinite step-end; }
      .lg1v4 { animation: lg1v4 7s infinite step-end; }
      .lg1m5 { animation: lg1m5 7s infinite step-end; }
      .lg1v5 { animation: lg1v5 7s infinite step-end; }
      .lg2m4 { animation: lg2m4 7s infinite step-end; }
      .lg2v4 { animation: lg2v4 7s infinite step-end; }
      .lg2m5 { animation: lg2m5 7s infinite step-end; }
      .lg2v5 { animation: lg2v5 7s infinite step-end; }
      .lg3m4 { animation: lg3m4 7s infinite step-end; }
      .lg3v4 { animation: lg3v4 7s infinite step-end; }
      .lg3m5 { animation: lg3m5 7s infinite step-end; }
      .lg3v5 { animation: lg3v5 7s infinite step-end; }
      .lg4m4 { animation: lg4m4 7s infinite step-end; }
      .lg4v4 { animation: lg4v4 7s infinite step-end; }
      .lg4m5 { animation: lg4m5 7s infinite step-end; }
      .lg4v5 { animation: lg4v5 7s infinite step-end; }
      .shm { animation: shm 7s infinite step-end; }
      .hey-eyes-open { animation: hey-eyes-open 7s infinite step-end; }
      .hey-eyes-wide { animation: hey-eyes-wide 7s infinite step-end; }
      .hey-eyes-shut { animation: hey-eyes-shut 7s infinite step-end; }
      .hey-eyes-squint { animation: hey-eyes-squint 7s infinite step-end; }
      .hey-mv { animation: hey-mv 7s infinite step-end; }
      .hv0 { animation: hv0 7s infinite step-end; }
      .hv1 { animation: hv1 7s infinite step-end; }
      .hv2 { animation: hv2 7s infinite step-end; }
      .hv3 { animation: hv3 7s infinite step-end; }
      .hv4 { animation: hv4 7s infinite step-end; }
      .hv5 { animation: hv5 7s infinite step-end; }
      .hv6 { animation: hv6 7s infinite step-end; }
      .hv7 { animation: hv7 7s infinite step-end; }
      .hv8 { animation: hv8 7s infinite step-end; }
      .hv9 { animation: hv9 7s infinite step-end; }
      .hv10 { animation: hv10 7s infinite step-end; }
      .hmv { animation: hmv 7s infinite step-end; }
      .spm0 { animation: spm0 7s infinite step-end; }
      .spv0 { animation: spv0 7s infinite step-end; }
      .spm1 { animation: spm1 7s infinite step-end; }
      .spv1 { animation: spv1 7s infinite step-end; }
      .spm2 { animation: spm2 7s infinite step-end; }
      .spv2 { animation: spv2 7s infinite step-end; }
      .spm3 { animation: spm3 7s infinite step-end; }
      .spv3 { animation: spv3 7s infinite step-end; }
      .spm4 { animation: spm4 7s infinite step-end; }
      .spv4 { animation: spv4 7s infinite step-end; }
      .ar-r-a { animation: ar-r-a 7s infinite step-end; }
      .ar-r-f { animation: ar-r-f 7s infinite step-end; }
      .ar-r { animation: ar-r 7s infinite step-end; }
      .hunch { animation: hunch 7s infinite step-end; }
      @keyframes lg1m4 {
        0% { transform: translate(0px, 0px); }
        5.9524% { transform: translate(1px, -1px); }
        8.3333% { transform: translate(0px, 0px); }
        20.2381% { transform: translate(3px, -1px); }
        22.619% { transform: translate(0px, 0px); }
        77.381% { transform: translate(-2px, -1px); }
        79.7619% { transform: translate(0px, 0px); }
        91.6667% { transform: translate(-5px, -1px); }
        94.0476% { transform: translate(0px, 0px); }
      }
      @keyframes lg1v4 {
        0% { opacity: 0; }
        5.9524% { opacity: 1; }
        8.3333% { opacity: 0; }
        20.2381% { opacity: 1; }
        22.619% { opacity: 0; }
        77.381% { opacity: 1; }
        79.7619% { opacity: 0; }
        91.6667% { opacity: 1; }
        94.0476% { opacity: 0; }
      }
      @keyframes lg1m5 {
        0% { transform: translate(-4px, 0px); }
        1.1905% { transform: translate(-3px, 0px); }
        3.5714% { transform: translate(-2px, 0px); }
        5.9524% { transform: translate(0px, 0px); }
        8.3333% { transform: translate(4px, 0px); }
        10.7143% { transform: translate(6px, 0px); }
        17.8571% { transform: translate(4px, 0px); }
        20.2381% { transform: translate(0px, 0px); }
        22.619% { transform: translate(1px, 0px); }
        25% { transform: translate(0px, 0px); }
        75% { transform: translate(-1px, 0px); }
        77.381% { transform: translate(0px, 0px); }
        79.7619% { transform: translate(-4px, 0px); }
        82.1429% { transform: translate(-5px, 0px); }
        84.5238% { transform: translate(-6px, 0px); }
        91.6667% { transform: translate(0px, 0px); }
        94.0476% { transform: translate(-5px, 0px); }
        96.4286% { transform: translate(-4px, 0px); }
      }
      @keyframes lg1v5 {
        0% { opacity: 1; }
        5.9524% { opacity: 0; }
        8.3333% { opacity: 1; }
        20.2381% { opacity: 0; }
        22.619% { opacity: 1; }
        77.381% { opacity: 0; }
        79.7619% { opacity: 1; }
        91.6667% { opacity: 0; }
        94.0476% { opacity: 1; }
      }
      @keyframes lg2m4 {
        0% { transform: translate(0px, 0px); }
        3.5714% { transform: translate(-2px, -1px); }
        5.9524% { transform: translate(0px, 0px); }
        15.4762% { transform: translate(6px, -1px); }
        17.8571% { transform: translate(0px, 0px); }
        75% { transform: translate(-1px, -1px); }
        77.381% { transform: translate(0px, 0px); }
        89.2857% { transform: translate(-6px, -1px); }
        91.6667% { transform: translate(0px, 0px); }
      }
      @keyframes lg2v4 {
        0% { opacity: 0; }
        3.5714% { opacity: 1; }
        5.9524% { opacity: 0; }
        15.4762% { opacity: 1; }
        17.8571% { opacity: 0; }
        75% { opacity: 1; }
        77.381% { opacity: 0; }
        89.2857% { opacity: 1; }
        91.6667% { opacity: 0; }
      }
      @keyframes lg2m5 {
        0% { transform: translate(-4px, 0px); }
        1.1905% { transform: translate(-3px, 0px); }
        3.5714% { transform: translate(0px, 0px); }
        5.9524% { transform: translate(1px, 0px); }
        8.3333% { transform: translate(4px, 0px); }
        10.7143% { transform: translate(6px, 0px); }
        15.4762% { transform: translate(0px, 0px); }
        17.8571% { transform: translate(4px, 0px); }
        20.2381% { transform: translate(3px, 0px); }
        22.619% { transform: translate(1px, 0px); }
        25% { transform: translate(0px, 0px); }
        77.381% { transform: translate(-2px, 0px); }
        79.7619% { transform: translate(-4px, 0px); }
        82.1429% { transform: translate(-5px, 0px); }
        84.5238% { transform: translate(-6px, 0px); }
        89.2857% { transform: translate(0px, 0px); }
        91.6667% { transform: translate(-5px, 0px); }
        96.4286% { transform: translate(-4px, 0px); }
      }
      @keyframes lg2v5 {
        0% { opacity: 1; }
        3.5714% { opacity: 0; }
        5.9524% { opacity: 1; }
        15.4762% { opacity: 0; }
        17.8571% { opacity: 1; }
        75% { opacity: 0; }
        77.381% { opacity: 1; }
        89.2857% { opacity: 0; }
        91.6667% { opacity: 1; }
      }
      @keyframes lg3m4 {
        0% { transform: translate(0px, 0px); }
        5.9524% { transform: translate(1px, -1px); }
        8.3333% { transform: translate(0px, 0px); }
        20.2381% { transform: translate(3px, -1px); }
        22.619% { transform: translate(0px, 0px); }
        77.381% { transform: translate(-2px, -1px); }
        79.7619% { transform: translate(0px, 0px); }
        91.6667% { transform: translate(-5px, -1px); }
        94.0476% { transform: translate(0px, 0px); }
      }
      @keyframes lg3v4 {
        0% { opacity: 0; }
        5.9524% { opacity: 1; }
        8.3333% { opacity: 0; }
        20.2381% { opacity: 1; }
        22.619% { opacity: 0; }
        77.381% { opacity: 1; }
        79.7619% { opacity: 0; }
        91.6667% { opacity: 1; }
        94.0476% { opacity: 0; }
      }
      @keyframes lg3m5 {
        0% { transform: translate(-4px, 0px); }
        1.1905% { transform: translate(-3px, 0px); }
        3.5714% { transform: translate(-2px, 0px); }
        5.9524% { transform: translate(0px, 0px); }
        8.3333% { transform: translate(4px, 0px); }
        10.7143% { transform: translate(6px, 0px); }
        17.8571% { transform: translate(4px, 0px); }
        20.2381% { transform: translate(0px, 0px); }
        22.619% { transform: translate(1px, 0px); }
        25% { transform: translate(0px, 0px); }
        75% { transform: translate(-1px, 0px); }
        77.381% { transform: translate(0px, 0px); }
        79.7619% { transform: translate(-4px, 0px); }
        82.1429% { transform: translate(-5px, 0px); }
        84.5238% { transform: translate(-6px, 0px); }
        91.6667% { transform: translate(0px, 0px); }
        94.0476% { transform: translate(-5px, 0px); }
        96.4286% { transform: translate(-4px, 0px); }
      }
      @keyframes lg3v5 {
        0% { opacity: 1; }
        5.9524% { opacity: 0; }
        8.3333% { opacity: 1; }
        20.2381% { opacity: 0; }
        22.619% { opacity: 1; }
        77.381% { opacity: 0; }
        79.7619% { opacity: 1; }
        91.6667% { opacity: 0; }
        94.0476% { opacity: 1; }
      }
      @keyframes lg4m4 {
        0% { transform: translate(0px, 0px); }
        3.5714% { transform: translate(-2px, -1px); }
        5.9524% { transform: translate(0px, 0px); }
        15.4762% { transform: translate(6px, -1px); }
        17.8571% { transform: translate(0px, 0px); }
        75% { transform: translate(-1px, -1px); }
        77.381% { transform: translate(0px, 0px); }
        89.2857% { transform: translate(-6px, -1px); }
        91.6667% { transform: translate(0px, 0px); }
      }
      @keyframes lg4v4 {
        0% { opacity: 0; }
        3.5714% { opacity: 1; }
        5.9524% { opacity: 0; }
        15.4762% { opacity: 1; }
        17.8571% { opacity: 0; }
        75% { opacity: 1; }
        77.381% { opacity: 0; }
        89.2857% { opacity: 1; }
        91.6667% { opacity: 0; }
      }
      @keyframes lg4m5 {
        0% { transform: translate(-4px, 0px); }
        1.1905% { transform: translate(-3px, 0px); }
        3.5714% { transform: translate(0px, 0px); }
        5.9524% { transform: translate(1px, 0px); }
        8.3333% { transform: translate(4px, 0px); }
        10.7143% { transform: translate(6px, 0px); }
        15.4762% { transform: translate(0px, 0px); }
        17.8571% { transform: translate(4px, 0px); }
        20.2381% { transform: translate(3px, 0px); }
        22.619% { transform: translate(1px, 0px); }
        25% { transform: translate(0px, 0px); }
        77.381% { transform: translate(-2px, 0px); }
        79.7619% { transform: translate(-4px, 0px); }
        82.1429% { transform: translate(-5px, 0px); }
        84.5238% { transform: translate(-6px, 0px); }
        89.2857% { transform: translate(0px, 0px); }
        91.6667% { transform: translate(-5px, 0px); }
        96.4286% { transform: translate(-4px, 0px); }
      }
      @keyframes lg4v5 {
        0% { opacity: 1; }
        3.5714% { opacity: 0; }
        5.9524% { opacity: 1; }
        15.4762% { opacity: 0; }
        17.8571% { opacity: 1; }
        75% { opacity: 0; }
        77.381% { opacity: 1; }
        89.2857% { opacity: 0; }
        91.6667% { opacity: 1; }
      }
      @keyframes shm {
        0% { transform: translate(-4px, 0px); }
        1.1905% { transform: translate(-3px, 0px); }
        3.5714% { transform: translate(-2px, 0px); }
        5.9524% { transform: translate(1px, 0px); }
        8.3333% { transform: translate(4px, 0px); }
        10.7143% { transform: translate(6px, 0px); }
        17.8571% { transform: translate(4px, 0px); }
        20.2381% { transform: translate(3px, 0px); }
        22.619% { transform: translate(1px, 0px); }
        25% { transform: translate(0px, 0px); }
        75% { transform: translate(-1px, 0px); }
        77.381% { transform: translate(-2px, 0px); }
        79.7619% { transform: translate(-4px, 0px); }
        82.1429% { transform: translate(-5px, 0px); }
        84.5238% { transform: translate(-6px, 0px); }
        91.6667% { transform: translate(-5px, 0px); }
        96.4286% { transform: translate(-4px, 0px); }
      }
      @keyframes hey-eyes-open {
        0% { opacity: 1; }
        65.4762% { opacity: 0; }
        72.619% { opacity: 1; }
      }
      @keyframes hey-eyes-wide {
        0% { opacity: 0; }
        65.4762% { opacity: 1; }
        67.8571% { opacity: 0; }
      }
      @keyframes hey-eyes-shut {
        0% { opacity: 0; }
        67.8571% { opacity: 1; }
        70.2381% { opacity: 0; }
      }
      @keyframes hey-eyes-squint {
        0% { opacity: 0; }
        70.2381% { opacity: 1; }
        72.619% { opacity: 0; }
      }
      @keyframes hey-mv {
        0% { transform: translate(2px, 0px); }
        29.7619% { transform: translate(0px, 0px); }
        60.7143% { transform: translate(0px, -1px); }
        67.8571% { transform: translate(0px, 0px); }
        75% { transform: translate(-1px, 0px); }
        79.7619% { transform: translate(1px, 0px); }
        84.5238% { transform: translate(2px, 0px); }
      }
      @keyframes hv0 {
        0% { opacity: 1; }
        29.7619% { opacity: 0; }
        67.8571% { opacity: 1; }
      }
      @keyframes hv1 {
        0% { opacity: 0; }
        29.7619% { opacity: 1; }
        32.1429% { opacity: 0; }
      }
      @keyframes hv2 {
        0% { opacity: 0; }
        32.1429% { opacity: 1; }
        36.9048% { opacity: 0; }
      }
      @keyframes hv3 {
        0% { opacity: 0; }
        36.9048% { opacity: 1; }
        39.2857% { opacity: 0; }
      }
      @keyframes hv4 {
        0% { opacity: 0; }
        39.2857% { opacity: 1; }
        41.6667% { opacity: 0; }
      }
      @keyframes hv5 {
        0% { opacity: 0; }
        41.6667% { opacity: 1; }
        53.5714% { opacity: 0; }
      }
      @keyframes hv6 {
        0% { opacity: 0; }
        53.5714% { opacity: 1; }
        55.9524% { opacity: 0; }
      }
      @keyframes hv7 {
        0% { opacity: 0; }
        55.9524% { opacity: 1; }
        58.3333% { opacity: 0; }
        65.4762% { opacity: 1; }
        67.8571% { opacity: 0; }
      }
      @keyframes hv8 {
        0% { opacity: 0; }
        58.3333% { opacity: 1; }
        60.7143% { opacity: 0; }
      }
      @keyframes hv9 {
        0% { opacity: 0; }
        60.7143% { opacity: 1; }
        63.0952% { opacity: 0; }
      }
      @keyframes hv10 {
        0% { opacity: 0; }
        63.0952% { opacity: 1; }
        65.4762% { opacity: 0; }
      }
      @keyframes hmv {
        0% { transform: translate(0px, 0px); }
        29.7619% { transform: translate(0px, 1px); }
        32.1429% { transform: translate(1px, 2px); }
        36.9048% { transform: translate(1px, 3px); }
        39.2857% { transform: translate(1px, 4px); }
        55.9524% { transform: translate(1px, 3px); }
        58.3333% { transform: translate(1px, 2px); }
        60.7143% { transform: translate(0px, 1px); }
        63.0952% { transform: translate(0px, 0px); }
        65.4762% { transform: translate(0px, -1px); }
        67.8571% { transform: translate(0px, 0px); }
      }
      @keyframes spm0 {
        0% { transform: translate(0px, 0px); }
        48.8095% { transform: translate(26px, 6px); }
        51.1905% { transform: translate(25px, 5px); }
        53.5714% { transform: translate(24px, 3px); }
        55.9524% { transform: translate(23px, 2px); }
        60.7143% { transform: translate(22px, 1px); }
        63.0952% { transform: translate(0px, 0px); }
      }
      @keyframes spv0 {
        0% { opacity: 0; }
        48.8095% { opacity: 1; }
        63.0952% { opacity: 0; }
      }
      @keyframes spm1 {
        0% { transform: translate(0px, 0px); }
        51.1905% { transform: translate(29px, 8px); }
        55.9524% { transform: translate(30px, 7px); }
        58.3333% { transform: translate(31px, 5px); }
        60.7143% { transform: translate(32px, 4px); }
        63.0952% { transform: translate(33px, 4px); }
        65.4762% { transform: translate(0px, 0px); }
      }
      @keyframes spv1 {
        0% { opacity: 0; }
        51.1905% { opacity: 1; }
        65.4762% { opacity: 0; }
      }
      @keyframes spm2 {
        0% { transform: translate(0px, 0px); }
        53.5714% { transform: translate(18px, 6px); }
        58.3333% { transform: translate(17px, 4px); }
        60.7143% { transform: translate(16px, 1px); }
        63.0952% { transform: translate(16px, 0px); }
        67.8571% { transform: translate(0px, 0px); }
      }
      @keyframes spv2 {
        0% { opacity: 0; }
        53.5714% { opacity: 1; }
        67.8571% { opacity: 0; }
      }
      @keyframes spm3 {
        0% { transform: translate(0px, 0px); }
        55.9524% { transform: translate(31px, 12px); }
        60.7143% { transform: translate(33px, 11px); }
        63.0952% { transform: translate(35px, 10px); }
        67.8571% { transform: translate(0px, 0px); }
      }
      @keyframes spv3 {
        0% { opacity: 0; }
        55.9524% { opacity: 1; }
        67.8571% { opacity: 0; }
      }
      @keyframes spm4 {
        0% { transform: translate(0px, 0px); }
        58.3333% { transform: translate(4px, 9px); }
        63.0952% { transform: translate(2px, 10px); }
        65.4762% { transform: translate(1px, 11px); }
        70.2381% { transform: translate(0px, 0px); }
      }
      @keyframes spv4 {
        0% { opacity: 0; }
        58.3333% { opacity: 1; }
        70.2381% { opacity: 0; }
      }
      @keyframes ar-r-a {
        0% { opacity: 1; }
        41.6667% { opacity: 0; }
        65.4762% { opacity: 1; }
      }
      @keyframes ar-r-f {
        0% { opacity: 0; }
        41.6667% { opacity: 1; }
        65.4762% { opacity: 0; }
      }
      @keyframes ar-r {
        0% { transform: translate(0px, 0px); }
        39.2857% { transform: translate(0px, -2px); }
        41.6667% { transform: translate(-4px, -6px); }
        44.0476% { transform: translate(-5px, -7px); }
        51.1905% { transform: translate(-5px, -8px); }
        55.9524% { transform: translate(-5px, -6px); }
        60.7143% { transform: translate(-5px, -7px); }
        63.0952% { transform: translate(-3px, -4px); }
        65.4762% { transform: translate(0px, 0px); }
      }
      @keyframes hunch {
        0% { transform: translate(-4px, 2px); }
        1.1905% { transform: translate(-3px, 2px); }
        3.5714% { transform: translate(-2px, 2px); }
        5.9524% { transform: translate(1px, 2px); }
        8.3333% { transform: translate(4px, 2px); }
        10.7143% { transform: translate(6px, 2px); }
        17.8571% { transform: translate(4px, 2px); }
        20.2381% { transform: translate(3px, 2px); }
        22.619% { transform: translate(1px, 2px); }
        25% { transform: translate(0px, 2px); }
        75% { transform: translate(-1px, 2px); }
        77.381% { transform: translate(-2px, 2px); }
        79.7619% { transform: translate(-4px, 2px); }
        82.1429% { transform: translate(-5px, 2px); }
        84.5238% { transform: translate(-6px, 2px); }
        91.6667% { transform: translate(-5px, 2px); }
        96.4286% { transform: translate(-4px, 2px); }
      }
    </style>
    <!-- ===== rig: shared Clawd v2 parts, identical in every clawd-*-v2.svg (see clawd-static-base-v2.svg) ===== -->
    <!-- left pincer fused with the body (rest spot and sliding along the body side) -->
    <g id="arm-l">
      <path fill="#6B3122" d="M0 15h5v1h-5zM-1 16h1v1h-1zM-1 17h2v1h-2zM1 18h1v2h-1zM-1 20h2v1h-2zM-1 21h1v1h-1zM0 22h5v1h-5z"/>
      <path fill="#F3AC90" d="M1 16h4v1h-4zM1 20h1v1h-1z"/>
      <path fill="#B8644B" d="M0 16h1v1h-1zM1 17h1v1h-1zM0 21h5v1h-5z"/>
      <path fill="#DE886D" d="M2 17h3v4h-3z"/>
    </g>
    <!-- right pincer fused with the body (rest spot and sliding along the body side) -->
    <g id="arm-r">
      <path fill="#B8644B" d="M29 16h1v1h-1zM28 17h1v1h-1zM25 21h5v1h-5z"/>
      <path fill="#6B3122" d="M25 15h5v1h-5zM30 16h1v1h-1zM29 17h2v1h-2zM28 18h1v2h-1zM29 20h2v1h-2zM30 21h1v1h-1zM25 22h5v1h-5z"/>
      <path fill="#F3AC90" d="M25 16h4v1h-4zM28 20h1v1h-1z"/>
      <path fill="#DE886D" d="M25 17h3v4h-3z"/>
    </g>
    <!-- right pincer, closed outline (any position) -->
    <g id="arm-r-free">
      <path fill="#B8644B" d="M29 16h1v1h-1zM28 17h1v1h-1zM26 21h4v1h-4z"/>
      <path fill="#6B3122" d="M25 15h5v1h-5zM25 16h1v6h-1zM30 16h1v1h-1zM29 17h2v1h-2zM28 18h1v2h-1zM29 20h2v1h-2zM30 21h1v1h-1zM25 22h5v1h-5z"/>
      <path fill="#F3AC90" d="M26 16h3v1h-3zM28 20h1v1h-1z"/>
      <path fill="#DE886D" d="M26 17h2v4h-2z"/>
    </g>
    <!-- eyes 2x4 with a white highlight -->
    <g id="eyes-open">
      <path fill="#FFFFFF" d="M8 16h1v1h-1zM20 16h1v1h-1z"/>
      <path fill="#1B1311" d="M9 16h1v1h-1zM21 16h1v1h-1zM8 17h2v3h-2zM20 17h2v3h-2z"/>
    </g>
    <!-- eyes 2x5, wide open -->
    <g id="eyes-wide">
      <path fill="#FFFFFF" d="M8 15h1v1h-1zM20 15h1v1h-1z"/>
      <path fill="#1B1311" d="M9 15h1v1h-1zM21 15h1v1h-1zM8 16h2v4h-2zM20 16h2v4h-2z"/>
    </g>
    <!-- eyes shut, 2x1 line -->
    <g id="eyes-shut">
      <path fill="#1B1311" d="M8 19h2v1h-2zM20 19h2v1h-2z"/>
    </g>
    <!-- eyes squinted, 2x2 -->
    <g id="eyes-squint">
      <path fill="#1B1311" d="M8 17h2v2h-2zM20 17h2v2h-2z"/>
    </g>
    <!-- ground shadow 18 wide -->
    <g id="shadow-w18">
      <path fill="#000000" fill-opacity="0.3" d="M6 30h18v1h-18z"/>
      <path fill="#000000" fill-opacity="0.15" d="M9 31h12v1h-12z"/>
    </g>
    <!-- leg 1, 4 px long -->
    <g id="leg1-n4">
      <path fill="#B8644B" d="M6 26h1v3h-1z"/>
      <path fill="#6B3122" d="M7 26h1v3h-1zM6 29h2v1h-2z"/>
    </g>
    <!-- leg 2, 4 px long -->
    <g id="leg2-n4">
      <path fill="#B8644B" d="M10 26h1v3h-1z"/>
      <path fill="#6B3122" d="M11 26h1v3h-1zM10 29h2v1h-2z"/>
    </g>
    <!-- leg 3, 4 px long -->
    <g id="leg3-n4">
      <path fill="#B8644B" d="M18 26h1v3h-1z"/>
      <path fill="#6B3122" d="M19 26h1v3h-1zM18 29h2v1h-2z"/>
    </g>
    <!-- leg 4, 4 px long -->
    <g id="leg4-n4">
      <path fill="#B8644B" d="M22 26h1v3h-1z"/>
      <path fill="#6B3122" d="M23 26h1v3h-1zM22 29h2v1h-2z"/>
    </g>
    <!-- leg 1, 5 px long -->
    <g id="leg1-n5">
      <path fill="#B8644B" d="M6 25h1v4h-1z"/>
      <path fill="#6B3122" d="M7 25h1v4h-1zM6 29h2v1h-2z"/>
    </g>
    <!-- leg 2, 5 px long -->
    <g id="leg2-n5">
      <path fill="#B8644B" d="M10 25h1v4h-1z"/>
      <path fill="#6B3122" d="M11 25h1v4h-1zM10 29h2v1h-2z"/>
    </g>
    <!-- leg 3, 5 px long -->
    <g id="leg3-n5">
      <path fill="#B8644B" d="M18 25h1v4h-1z"/>
      <path fill="#6B3122" d="M19 25h1v4h-1zM18 29h2v1h-2z"/>
    </g>
    <!-- leg 4, 5 px long -->
    <g id="leg4-n5">
      <path fill="#B8644B" d="M22 25h1v4h-1z"/>
      <path fill="#6B3122" d="M23 25h1v4h-1zM22 29h2v1h-2z"/>
    </g>
    <!-- leaning body 22x14 -->
    <g id="torso-22x14-lp1p0p0">
      <path fill="#DE886D" d="M8 14h17v1h-17zM6 15h18v8h-18z"/>
      <path fill="#B8644B" d="M25 13h1v2h-1zM24 15h1v8h-1zM5 23h20v2h-20z"/>
      <path fill="#6B3122" d="M5 12h22v1h-22zM5 13h1v2h-1zM26 13h1v2h-1zM4 15h1v10h-1zM25 15h1v10h-1zM4 25h22v1h-22z"/>
      <path fill="#F3AC90" d="M6 13h19v1h-19zM5 15h1v8h-1z"/>
      <path fill="#FFD3C2" d="M6 14h2v1h-2z"/>
    </g>
    <!-- wizard hat tilted 0 deg -->
    <g id="hat-tp0">
      <path fill="#5865C8" d="M11 -2h2v1h-2zM12 -1h1v1h-1zM11 0h4v1h-4zM11 1h6v3h-6zM18 3h1v1h-1zM10 4h10v1h-10zM9 5h5v1h-5zM15 5h6v1h-6zM8 6h1v1h-1zM10 6h10v1h-10zM21 6h1v1h-1zM7 7h16v1h-16zM6 8h18v1h-18z"/>
      <path fill="#2C2557" d="M4 9h22v1h-22zM4 11h22v2h-22z"/>
      <path fill="#232A66" d="M10 -3h4v1h-4zM9 -2h1v1h-1zM14 -2h1v1h-1zM10 -1h1v1h-1zM15 -1h1v1h-1zM9 0h1v4h-1zM16 0h1v1h-1zM17 1h2v1h-2zM18 2h1v1h-1zM19 3h2v1h-2zM8 4h1v1h-1zM21 4h1v1h-1zM7 5h1v1h-1zM22 5h1v1h-1zM6 6h1v1h-1zM23 6h1v1h-1zM5 7h1v1h-1zM24 7h1v1h-1zM4 8h1v1h-1zM25 8h1v1h-1zM3 9h1v4h-1zM26 9h1v4h-1zM1 13h2v1h-2zM27 13h2v1h-2zM0 14h1v1h-1zM29 14h1v1h-1zM1 15h28v1h-28z"/>
      <path fill="#8E94F0" d="M3 13h12v1h-12zM1 14h14v1h-14z"/>
      <path fill="#6A70D8" d="M15 13h12v1h-12zM15 14h14v1h-14z"/>
      <path fill="#473F96" d="M4 10h22v1h-22z"/>
      <path fill="#7F8BE8" d="M10 -2h1v1h-1zM11 -1h1v1h-1zM10 0h1v2h-1zM10 3h1v1h-1zM9 4h1v1h-1zM8 5h1v1h-1zM7 6h1v1h-1zM6 7h1v1h-1zM5 8h1v1h-1z"/>
      <path fill="#404CB0" d="M13 -2h1v1h-1zM14 -1h1v1h-1zM15 0h1v1h-1zM17 2h1v1h-1zM20 4h1v1h-1zM21 5h1v1h-1zM22 6h1v1h-1zM23 7h1v1h-1zM24 8h1v1h-1z"/>
      <path fill="#FFFFFF" d="M13 -1h1v1h-1zM10 2h1v1h-1zM17 3h1v1h-1zM14 5h1v1h-1zM9 6h1v1h-1zM20 6h1v1h-1z"/>
    </g>
    <!-- wizard hat tilted 1 deg -->
    <g id="hat-tp10">
      <path fill="#232A66" d="M10 -3h4v1h-4zM9 -2h1v1h-1zM14 -2h1v1h-1zM10 -1h1v1h-1zM15 -1h1v1h-1zM9 0h1v4h-1zM16 0h1v1h-1zM17 1h2v1h-2zM18 2h1v1h-1zM19 3h2v1h-2zM8 4h1v1h-1zM21 4h1v1h-1zM7 5h1v1h-1zM22 5h1v1h-1zM6 6h1v1h-1zM23 6h1v1h-1zM5 7h1v1h-1zM24 7h1v1h-1zM4 8h1v1h-1zM25 8h1v1h-1zM3 9h1v4h-1zM26 9h1v4h-1zM1 13h2v1h-2zM27 13h2v1h-2zM0 14h1v1h-1zM29 14h1v1h-1zM1 15h28v1h-28z"/>
      <path fill="#7F8BE8" d="M10 -2h1v1h-1zM11 -1h1v1h-1zM10 0h1v2h-1zM10 3h1v1h-1zM9 4h1v1h-1zM8 5h1v1h-1zM7 6h1v1h-1zM6 7h1v1h-1zM5 8h1v1h-1z"/>
      <path fill="#5865C8" d="M11 -2h2v1h-2zM12 -1h1v1h-1zM11 0h4v1h-4zM11 1h6v3h-6zM18 3h1v1h-1zM10 4h10v1h-10zM9 5h5v1h-5zM15 5h6v1h-6zM8 6h1v1h-1zM10 6h10v1h-10zM21 6h1v1h-1zM7 7h16v1h-16zM6 8h18v1h-18z"/>
      <path fill="#404CB0" d="M13 -2h1v1h-1zM14 -1h1v1h-1zM15 0h1v1h-1zM17 2h1v1h-1zM20 4h1v1h-1zM21 5h1v1h-1zM22 6h1v1h-1zM23 7h1v1h-1zM24 8h1v1h-1z"/>
      <path fill="#FFFFFF" d="M13 -1h1v1h-1zM10 2h1v1h-1zM17 3h1v1h-1zM14 5h1v1h-1zM9 6h1v1h-1zM20 6h1v1h-1z"/>
      <path fill="#2C2557" d="M4 9h22v1h-22zM4 11h22v2h-22z"/>
      <path fill="#473F96" d="M4 10h22v1h-22z"/>
      <path fill="#8E94F0" d="M3 13h12v1h-12zM1 14h14v1h-14z"/>
      <path fill="#6A70D8" d="M15 13h12v1h-12zM15 14h14v1h-14z"/>
    </g>
    <!-- wizard hat tilted 3 deg -->
    <g id="hat-tp30">
      <path fill="#232A66" d="M11 -3h4v1h-4zM10 -2h1v1h-1zM15 -2h1v1h-1zM11 -1h1v1h-1zM16 -1h1v1h-1zM10 0h1v3h-1zM17 0h1v1h-1zM18 1h2v1h-2zM19 2h1v1h-1zM9 3h1v1h-1zM20 3h2v1h-2zM8 4h1v1h-1zM21 4h1v1h-1zM7 5h1v1h-1zM22 5h1v1h-1zM5 6h2v1h-2zM23 6h1v1h-1zM4 7h1v1h-1zM24 7h1v1h-1zM3 8h1v4h-1zM25 9h1v1h-1zM26 10h1v4h-1zM1 12h2v1h-2zM0 13h1v1h-1zM1 14h4v1h-4zM27 14h2v1h-2zM5 15h19v1h-19zM29 15h1v1h-1zM24 16h5v1h-5z"/>
      <path fill="#7F8BE8" d="M11 -2h1v1h-1zM12 -1h1v1h-1zM11 0h1v2h-1zM10 3h1v1h-1zM9 4h1v1h-1zM8 5h1v1h-1zM7 6h1v1h-1zM5 7h2v1h-2z"/>
      <path fill="#5865C8" d="M12 -2h2v1h-2zM13 -1h1v1h-1zM12 0h4v1h-4zM12 1h6v2h-6zM11 3h7v1h-7zM19 3h1v1h-1zM10 4h10v1h-10zM9 5h5v1h-5zM15 5h6v1h-6zM8 6h1v1h-1zM10 6h10v1h-10zM21 6h1v1h-1zM7 7h16v1h-16zM6 8h18v1h-18z"/>
      <path fill="#404CB0" d="M14 -2h1v1h-1zM15 -1h1v1h-1zM16 0h1v1h-1zM18 2h1v1h-1zM20 4h1v1h-1zM21 5h1v1h-1zM22 6h1v1h-1zM23 7h1v1h-1zM24 8h1v1h-1z"/>
      <path fill="#FFFFFF" d="M14 -1h1v1h-1zM11 2h1v1h-1zM18 3h1v1h-1zM14 5h1v1h-1zM9 6h1v1h-1zM20 6h1v1h-1z"/>
      <path fill="#2C2557" d="M4 8h2v1h-2zM6 9h19v1h-19zM4 10h2v1h-2zM25 10h1v1h-1zM4 11h21v1h-21zM5 12h21v1h-21zM25 13h1v1h-1z"/>
      <path fill="#473F96" d="M4 9h2v1h-2zM6 10h19v1h-19zM25 11h1v1h-1z"/>
      <path fill="#8E94F0" d="M3 12h2v1h-2zM1 13h14v1h-14zM5 14h10v1h-10z"/>
      <path fill="#6A70D8" d="M15 13h10v1h-10zM15 14h12v1h-12zM24 15h5v1h-5z"/>
    </g>
    <!-- wizard hat tilted 5 deg -->
    <g id="hat-tp50">
      <path fill="#232A66" d="M11 -3h4v1h-4zM10 -2h1v1h-1zM15 -2h1v1h-1zM11 -1h1v1h-1zM16 -1h1v1h-1zM10 0h1v3h-1zM17 0h1v1h-1zM18 1h2v1h-2zM19 2h1v1h-1zM9 3h2v1h-2zM20 3h1v1h-1zM8 4h1v1h-1zM21 4h1v1h-1zM7 5h1v1h-1zM22 5h1v1h-1zM6 6h1v1h-1zM23 6h1v1h-1zM4 7h1v1h-1zM24 7h1v2h-1zM3 8h1v4h-1zM25 9h1v1h-1zM26 10h1v4h-1zM1 12h2v1h-2zM0 13h1v1h-1zM1 14h8v1h-8zM27 14h2v1h-2zM9 15h12v1h-12zM29 15h1v1h-1zM21 16h8v1h-8z"/>
      <path fill="#7F8BE8" d="M11 -2h1v1h-1zM12 -1h1v1h-1zM11 0h1v2h-1zM11 3h1v1h-1zM9 4h2v1h-2zM8 5h1v1h-1zM7 6h1v1h-1zM5 7h1v1h-1z"/>
      <path fill="#5865C8" d="M12 -2h2v1h-2zM13 -1h1v1h-1zM12 0h4v1h-4zM12 1h6v3h-6zM19 3h1v1h-1zM11 4h10v1h-10zM9 5h6v1h-6zM16 5h5v1h-5zM8 6h2v1h-2zM11 6h11v1h-11zM6 7h15v1h-15zM22 7h1v1h-1zM9 8h14v1h-14zM21 9h3v1h-3z"/>
      <path fill="#404CB0" d="M14 -2h1v1h-1zM15 -1h1v1h-1zM16 0h1v1h-1zM18 2h1v1h-1zM21 5h1v1h-1zM22 6h1v1h-1zM23 7h1v2h-1zM24 9h1v1h-1z"/>
      <path fill="#FFFFFF" d="M14 -1h1v1h-1zM11 2h1v1h-1zM18 3h1v1h-1zM15 5h1v1h-1zM10 6h1v1h-1zM21 7h1v1h-1z"/>
      <path fill="#2C2557" d="M4 8h5v1h-5zM9 9h12v1h-12zM4 10h5v1h-5zM21 10h5v1h-5zM4 11h17v1h-17zM9 12h17v1h-17zM21 13h5v1h-5z"/>
      <path fill="#473F96" d="M4 9h5v1h-5zM9 10h12v1h-12zM21 11h5v1h-5z"/>
      <path fill="#8E94F0" d="M3 12h6v1h-6zM1 13h14v1h-14zM9 14h6v1h-6z"/>
      <path fill="#6A70D8" d="M15 13h6v1h-6zM15 14h12v1h-12zM21 15h8v1h-8z"/>
    </g>
    <!-- wizard hat tilted 7 deg -->
    <g id="hat-tp70">
      <path fill="#232A66" d="M11 -3h5v1h-5zM16 -2h1v1h-1zM11 -1h2v1h-2zM17 -1h1v1h-1zM10 0h1v3h-1zM18 0h1v1h-1zM18 1h2v1h-2zM19 2h1v1h-1zM9 3h1v1h-1zM8 4h1v1h-1zM20 4h2v1h-2zM7 5h1v1h-1zM22 5h1v1h-1zM6 6h1v1h-1zM23 6h1v1h-1zM5 7h1v1h-1zM24 7h1v1h-1zM3 8h1v3h-1zM25 8h1v1h-1zM26 9h1v5h-1zM1 11h3v1h-3zM0 12h1v1h-1zM1 13h2v1h-2zM3 14h8v1h-8zM11 15h8v1h-8zM27 15h2v1h-2zM19 16h8v1h-8zM29 16h1v1h-1zM27 17h2v1h-2z"/>
      <path fill="#7F8BE8" d="M12 -2h1v1h-1zM13 -1h1v1h-1zM11 0h2v1h-2zM11 2h1v1h-1zM10 3h2v1h-2zM9 4h1v1h-1zM8 5h1v1h-1zM7 6h1v1h-1zM6 7h1v1h-1z"/>
      <path fill="#5865C8" d="M13 -2h2v1h-2zM14 -1h1v1h-1zM13 0h4v1h-4zM12 1h6v3h-6zM19 3h1v1h-1zM10 4h10v1h-10zM9 5h1v1h-1zM11 5h4v1h-4zM16 5h5v1h-5zM8 6h14v1h-14zM7 7h14v1h-14zM22 7h1v1h-1zM11 8h13v1h-13zM19 9h5v1h-5z"/>
      <path fill="#404CB0" d="M15 -2h1v1h-1zM16 -1h1v1h-1zM17 0h1v1h-1zM18 2h1v1h-1zM21 5h1v1h-1zM22 6h1v1h-1zM23 7h1v1h-1zM24 8h1v1h-1zM24 9h2v1h-2z"/>
      <path fill="#FFFFFF" d="M15 -1h1v1h-1zM11 1h1v1h-1zM18 3h1v1h-1zM10 5h1v1h-1zM15 5h1v1h-1zM21 7h1v1h-1z"/>
      <path fill="#2C2557" d="M4 8h7v1h-7zM11 9h8v1h-8zM4 10h7v1h-7zM19 10h7v1h-7zM4 11h15v1h-15zM11 12h15v1h-15zM19 13h7v1h-7z"/>
      <path fill="#473F96" d="M4 9h7v1h-7zM11 10h8v1h-8zM19 11h7v1h-7z"/>
      <path fill="#8E94F0" d="M1 12h10v1h-10zM3 13h12v1h-12zM11 14h4v1h-4z"/>
      <path fill="#6A70D8" d="M15 13h4v1h-4zM15 14h12v1h-12zM19 15h8v1h-8zM27 16h2v1h-2z"/>
    </g>
    <!-- wizard hat tilted 7.5 deg -->
    <g id="hat-tp75">
      <path fill="#232A66" d="M11 -3h5v1h-5zM16 -2h1v1h-1zM11 -1h2v1h-2zM17 -1h1v1h-1zM11 0h1v1h-1zM18 0h1v1h-1zM10 1h1v2h-1zM19 1h1v3h-1zM9 3h1v1h-1zM8 4h1v1h-1zM20 4h2v1h-2zM7 5h1v1h-1zM22 5h1v1h-1zM6 6h1v1h-1zM23 6h1v1h-1zM5 7h1v1h-1zM24 7h1v1h-1zM3 8h1v3h-1zM25 8h1v1h-1zM26 9h1v6h-1zM1 11h2v1h-2zM0 12h1v1h-1zM1 13h2v1h-2zM3 14h8v1h-8zM11 15h8v1h-8zM27 15h2v1h-2zM19 16h7v1h-7zM29 16h1v1h-1zM26 17h3v1h-3z"/>
      <path fill="#7F8BE8" d="M12 -2h1v1h-1zM13 -1h1v1h-1zM12 0h1v1h-1zM11 2h1v1h-1zM10 3h1v1h-1zM9 4h1v1h-1zM8 5h1v1h-1zM7 6h1v1h-1zM6 7h1v1h-1z"/>
      <path fill="#5865C8" d="M13 -2h2v1h-2zM14 -1h1v1h-1zM13 0h4v1h-4zM12 1h7v1h-7zM12 2h6v1h-6zM11 3h7v1h-7zM10 4h10v1h-10zM9 5h1v1h-1zM11 5h4v1h-4zM16 5h5v1h-5zM8 6h14v1h-14zM7 7h14v1h-14zM22 7h1v1h-1zM11 8h13v1h-13zM19 9h6v1h-6z"/>
      <path fill="#404CB0" d="M15 -2h1v1h-1zM16 -1h1v1h-1zM17 0h1v1h-1zM18 2h1v1h-1zM21 5h1v1h-1zM22 6h1v1h-1zM23 7h1v1h-1zM24 8h1v1h-1zM25 9h1v1h-1z"/>
      <path fill="#FFFFFF" d="M15 -1h1v1h-1zM11 1h1v1h-1zM18 3h1v1h-1zM10 5h1v1h-1zM15 5h1v1h-1zM21 7h1v1h-1z"/>
      <path fill="#2C2557" d="M4 8h7v1h-7zM11 9h8v1h-8zM4 10h7v1h-7zM19 10h7v1h-7zM4 11h15v1h-15zM11 12h15v1h-15zM19 13h7v1h-7z"/>
      <path fill="#473F96" d="M4 9h7v1h-7zM11 10h8v1h-8zM19 11h7v1h-7z"/>
      <path fill="#8E94F0" d="M3 11h1v1h-1zM1 12h10v1h-10zM3 13h12v1h-12zM11 14h4v1h-4z"/>
      <path fill="#6A70D8" d="M15 13h4v1h-4zM15 14h11v1h-11zM19 15h8v1h-8zM26 16h3v1h-3z"/>
    </g>
    <!-- wizard hat tilted 7.5 deg (stars dark) -->
    <g id="hat-tp75-ns">
      <path fill="#232A66" d="M11 -3h5v1h-5zM16 -2h1v1h-1zM11 -1h2v1h-2zM17 -1h1v1h-1zM11 0h1v1h-1zM18 0h1v1h-1zM10 1h1v2h-1zM19 1h1v3h-1zM9 3h1v1h-1zM8 4h1v1h-1zM20 4h2v1h-2zM7 5h1v1h-1zM22 5h1v1h-1zM6 6h1v1h-1zM23 6h1v1h-1zM5 7h1v1h-1zM24 7h1v1h-1zM3 8h1v3h-1zM25 8h1v1h-1zM26 9h1v6h-1zM1 11h2v1h-2zM0 12h1v1h-1zM1 13h2v1h-2zM3 14h8v1h-8zM11 15h8v1h-8zM27 15h2v1h-2zM19 16h7v1h-7zM29 16h1v1h-1zM26 17h3v1h-3z"/>
      <path fill="#7F8BE8" d="M12 -2h1v1h-1zM13 -1h1v1h-1zM12 0h1v1h-1zM11 1h1v2h-1zM10 3h1v1h-1zM9 4h1v1h-1zM8 5h1v1h-1zM7 6h1v1h-1zM6 7h1v1h-1z"/>
      <path fill="#5865C8" d="M13 -2h2v1h-2zM14 -1h2v1h-2zM13 0h4v1h-4zM12 1h7v1h-7zM12 2h6v1h-6zM11 3h8v1h-8zM10 4h10v1h-10zM9 5h12v1h-12zM8 6h14v1h-14zM7 7h16v1h-16zM11 8h13v1h-13zM19 9h6v1h-6z"/>
      <path fill="#404CB0" d="M15 -2h1v1h-1zM16 -1h1v1h-1zM17 0h1v1h-1zM18 2h1v1h-1zM21 5h1v1h-1zM22 6h1v1h-1zM23 7h1v1h-1zM24 8h1v1h-1zM25 9h1v1h-1z"/>
      <path fill="#2C2557" d="M4 8h7v1h-7zM11 9h8v1h-8zM4 10h7v1h-7zM19 10h7v1h-7zM4 11h15v1h-15zM11 12h15v1h-15zM19 13h7v1h-7z"/>
      <path fill="#473F96" d="M4 9h7v1h-7zM11 10h8v1h-8zM19 11h7v1h-7z"/>
      <path fill="#8E94F0" d="M3 11h1v1h-1zM1 12h10v1h-10zM3 13h12v1h-12zM11 14h4v1h-4z"/>
      <path fill="#6A70D8" d="M15 13h4v1h-4zM15 14h11v1h-11zM19 15h8v1h-8zM26 16h3v1h-3z"/>
    </g>
    <!-- wizard hat tilted -1 deg -->
    <g id="hat-tm10">
      <path fill="#232A66" d="M10 -3h4v1h-4zM9 -2h1v1h-1zM14 -2h1v1h-1zM10 -1h1v1h-1zM15 -1h1v1h-1zM9 0h1v4h-1zM16 0h1v1h-1zM17 1h2v1h-2zM18 2h1v1h-1zM19 3h2v1h-2zM8 4h1v1h-1zM21 4h1v1h-1zM7 5h1v1h-1zM22 5h1v1h-1zM6 6h1v1h-1zM23 6h1v1h-1zM5 7h1v1h-1zM24 7h1v1h-1zM4 8h1v1h-1zM25 8h1v1h-1zM3 9h1v4h-1zM26 9h1v4h-1zM1 13h2v1h-2zM27 13h2v1h-2zM0 14h1v1h-1zM29 14h1v1h-1zM1 15h28v1h-28z"/>
      <path fill="#7F8BE8" d="M10 -2h1v1h-1zM11 -1h1v1h-1zM10 0h1v2h-1zM10 3h1v1h-1zM9 4h1v1h-1zM8 5h1v1h-1zM7 6h1v1h-1zM6 7h1v1h-1zM5 8h1v1h-1z"/>
      <path fill="#5865C8" d="M11 -2h2v1h-2zM12 -1h1v1h-1zM11 0h4v1h-4zM11 1h6v3h-6zM18 3h1v1h-1zM10 4h10v1h-10zM9 5h5v1h-5zM15 5h6v1h-6zM8 6h1v1h-1zM10 6h10v1h-10zM21 6h1v1h-1zM7 7h16v1h-16zM6 8h18v1h-18z"/>
      <path fill="#404CB0" d="M13 -2h1v1h-1zM14 -1h1v1h-1zM15 0h1v1h-1zM17 2h1v1h-1zM20 4h1v1h-1zM21 5h1v1h-1zM22 6h1v1h-1zM23 7h1v1h-1zM24 8h1v1h-1z"/>
      <path fill="#FFFFFF" d="M13 -1h1v1h-1zM10 2h1v1h-1zM17 3h1v1h-1zM14 5h1v1h-1zM9 6h1v1h-1zM20 6h1v1h-1z"/>
      <path fill="#2C2557" d="M4 9h22v1h-22zM4 11h22v2h-22z"/>
      <path fill="#473F96" d="M4 10h22v1h-22z"/>
      <path fill="#8E94F0" d="M3 13h12v1h-12zM1 14h14v1h-14z"/>
      <path fill="#6A70D8" d="M15 13h12v1h-12zM15 14h14v1h-14z"/>
    </g>
    <!-- wizard hat tilted -2 deg -->
    <g id="hat-tm20">
      <path fill="#232A66" d="M9 -3h4v1h-4zM8 -2h1v1h-1zM13 -2h1v1h-1zM10 -1h1v1h-1zM15 -1h1v1h-1zM9 0h1v4h-1zM16 0h1v1h-1zM17 1h2v1h-2zM18 2h1v1h-1zM19 3h2v1h-2zM8 4h1v1h-1zM21 4h1v1h-1zM7 5h1v1h-1zM22 5h1v1h-1zM6 6h1v1h-1zM23 6h1v1h-1zM5 7h1v1h-1zM24 7h1v1h-1zM4 8h1v1h-1zM25 8h1v1h-1zM3 9h1v4h-1zM26 9h1v4h-1zM1 13h2v1h-2zM27 13h3v1h-3zM0 15h29v1h-29z"/>
      <path fill="#7F8BE8" d="M9 -2h1v1h-1zM11 -1h1v1h-1zM10 0h1v2h-1zM10 3h1v1h-1zM9 4h1v1h-1zM8 5h1v1h-1zM7 6h1v1h-1zM6 7h1v1h-1zM5 8h1v1h-1z"/>
      <path fill="#5865C8" d="M10 -2h2v1h-2zM12 -1h1v1h-1zM11 0h4v1h-4zM11 1h6v3h-6zM18 3h1v1h-1zM10 4h10v1h-10zM9 5h5v1h-5zM15 5h6v1h-6zM8 6h1v1h-1zM10 6h10v1h-10zM21 6h1v1h-1zM7 7h16v1h-16zM6 8h18v1h-18z"/>
      <path fill="#404CB0" d="M12 -2h1v1h-1zM14 -1h1v1h-1zM15 0h1v1h-1zM17 2h1v1h-1zM20 4h1v1h-1zM21 5h1v1h-1zM22 6h1v1h-1zM23 7h1v1h-1zM24 8h1v1h-1z"/>
      <path fill="#FFFFFF" d="M13 -1h1v1h-1zM10 2h1v1h-1zM17 3h1v1h-1zM14 5h1v1h-1zM9 6h1v1h-1zM20 6h1v1h-1z"/>
      <path fill="#2C2557" d="M4 9h22v1h-22zM4 11h22v2h-22z"/>
      <path fill="#473F96" d="M4 10h22v1h-22z"/>
      <path fill="#8E94F0" d="M3 13h12v1h-12zM1 14h14v1h-14z"/>
      <path fill="#6A70D8" d="M15 13h12v1h-12zM15 14h14v1h-14z"/>
    </g>
    <!-- wizard hat tilted 1.5 deg (stars dark) -->
    <g id="hat-tp15-ns">
      <path fill="#232A66" d="M10 -3h4v1h-4zM9 -2h1v1h-1zM14 -2h1v1h-1zM10 -1h1v1h-1zM15 -1h1v1h-1zM9 0h1v4h-1zM16 0h1v1h-1zM17 1h2v1h-2zM18 2h1v1h-1zM19 3h2v1h-2zM8 4h1v1h-1zM21 4h1v1h-1zM7 5h1v1h-1zM22 5h1v1h-1zM6 6h1v1h-1zM23 6h1v1h-1zM5 7h1v1h-1zM24 7h1v1h-1zM4 8h1v1h-1zM25 8h1v1h-1zM3 9h1v4h-1zM26 9h1v4h-1zM1 13h2v1h-2zM27 13h2v1h-2zM0 14h1v1h-1zM29 14h1v1h-1zM1 15h28v1h-28z"/>
      <path fill="#7F8BE8" d="M10 -2h1v1h-1zM11 -1h1v1h-1zM10 0h1v4h-1zM9 4h1v1h-1zM8 5h1v1h-1zM7 6h1v1h-1zM6 7h1v1h-1zM5 8h1v1h-1z"/>
      <path fill="#5865C8" d="M11 -2h2v1h-2zM12 -1h2v1h-2zM11 0h4v1h-4zM11 1h6v2h-6zM11 3h8v1h-8zM10 4h10v1h-10zM9 5h12v1h-12zM8 6h14v1h-14zM7 7h16v1h-16zM6 8h18v1h-18z"/>
      <path fill="#404CB0" d="M13 -2h1v1h-1zM14 -1h1v1h-1zM15 0h1v1h-1zM17 2h1v1h-1zM20 4h1v1h-1zM21 5h1v1h-1zM22 6h1v1h-1zM23 7h1v1h-1zM24 8h1v1h-1z"/>
      <path fill="#2C2557" d="M4 9h22v1h-22zM4 11h22v2h-22z"/>
      <path fill="#473F96" d="M4 10h22v1h-22z"/>
      <path fill="#8E94F0" d="M3 13h12v1h-12zM1 14h14v1h-14z"/>
      <path fill="#6A70D8" d="M15 13h12v1h-12zM15 14h14v1h-14z"/>
    </g>
    <!-- wizard hat tilted 1.5 deg -->
    <g id="hat-tp15">
      <path fill="#232A66" d="M10 -3h4v1h-4zM9 -2h1v1h-1zM14 -2h1v1h-1zM10 -1h1v1h-1zM15 -1h1v1h-1zM9 0h1v4h-1zM16 0h1v1h-1zM17 1h2v1h-2zM18 2h1v1h-1zM19 3h2v1h-2zM8 4h1v1h-1zM21 4h1v1h-1zM7 5h1v1h-1zM22 5h1v1h-1zM6 6h1v1h-1zM23 6h1v1h-1zM5 7h1v1h-1zM24 7h1v1h-1zM4 8h1v1h-1zM25 8h1v1h-1zM3 9h1v4h-1zM26 9h1v4h-1zM1 13h2v1h-2zM27 13h2v1h-2zM0 14h1v1h-1zM29 14h1v1h-1zM1 15h28v1h-28z"/>
      <path fill="#7F8BE8" d="M10 -2h1v1h-1zM11 -1h1v1h-1zM10 0h1v2h-1zM10 3h1v1h-1zM9 4h1v1h-1zM8 5h1v1h-1zM7 6h1v1h-1zM6 7h1v1h-1zM5 8h1v1h-1z"/>
      <path fill="#5865C8" d="M11 -2h2v1h-2zM12 -1h1v1h-1zM11 0h4v1h-4zM11 1h6v3h-6zM18 3h1v1h-1zM10 4h10v1h-10zM9 5h5v1h-5zM15 5h6v1h-6zM8 6h1v1h-1zM10 6h10v1h-10zM21 6h1v1h-1zM7 7h16v1h-16zM6 8h18v1h-18z"/>
      <path fill="#404CB0" d="M13 -2h1v1h-1zM14 -1h1v1h-1zM15 0h1v1h-1zM17 2h1v1h-1zM20 4h1v1h-1zM21 5h1v1h-1zM22 6h1v1h-1zM23 7h1v1h-1zM24 8h1v1h-1z"/>
      <path fill="#FFFFFF" d="M13 -1h1v1h-1zM10 2h1v1h-1zM17 3h1v1h-1zM14 5h1v1h-1zM9 6h1v1h-1zM20 6h1v1h-1z"/>
      <path fill="#2C2557" d="M4 9h22v1h-22zM4 11h22v2h-22z"/>
      <path fill="#473F96" d="M4 10h22v1h-22z"/>
      <path fill="#8E94F0" d="M3 13h12v1h-12zM1 14h14v1h-14z"/>
      <path fill="#6A70D8" d="M15 13h12v1h-12zM15 14h14v1h-14z"/>
    </g>
    <!-- sparkle -->
    <g id="spk-dot-FFF3A8">
      <path fill="#FFF3A8" d="M0 0h2v2h-2z"/>
    </g>
    <!-- sparkle -->
    <g id="spk-plus-FFFFFF">
      <path fill="#FFFFFF" d="M1 0h1v1h-1zM0 1h3v1h-3zM1 2h1v1h-1z"/>
    </g>
    <!-- sparkle -->
    <g id="spk-dot-DCC5FF">
      <path fill="#DCC5FF" d="M0 0h2v2h-2z"/>
    </g>
    <!-- sparkle -->
    <g id="spk-dot-FFFFFF">
      <path fill="#FFFFFF" d="M0 0h2v2h-2z"/>
    </g>
  </defs>
  <g transform="scale(.5)">
    <g class="shm">
    <use href="#shadow-w18"/>
    </g>
    <g class="lg1v4">
    <g class="lg1m4">
    <use href="#leg1-n4"/>
    </g>
    </g>
    <g class="lg1v5">
    <g class="lg1m5">
    <use href="#leg1-n5"/>
    </g>
    </g>
    <g class="lg2v4">
    <g class="lg2m4">
    <use href="#leg2-n4"/>
    </g>
    </g>
    <g class="lg2v5">
    <g class="lg2m5">
    <use href="#leg2-n5"/>
    </g>
    </g>
    <g class="lg3v4">
    <g class="lg3m4">
    <use href="#leg3-n4"/>
    </g>
    </g>
    <g class="lg3v5">
    <g class="lg3m5">
    <use href="#leg3-n5"/>
    </g>
    </g>
    <g class="lg4v4">
    <g class="lg4m4">
    <use href="#leg4-n4"/>
    </g>
    </g>
    <g class="lg4v5">
    <g class="lg4m5">
    <use href="#leg4-n5"/>
    </g>
    </g>
    <g class="hunch">
    <use href="#torso-22x14-lp1p0p0"/>
    <use href="#arm-l"/>
    <g class="hey-mv">
    <g class="hey-eyes-open">
    <use href="#eyes-open"/>
    </g>
    <g class="hey-eyes-wide">
    <use href="#eyes-wide"/>
    </g>
    <g class="hey-eyes-shut">
    <use href="#eyes-shut"/>
    </g>
    <g class="hey-eyes-squint">
    <use href="#eyes-squint"/>
    </g>
    </g>
    <g class="hmv">
    <g class="hv0">
    <use href="#hat-tp0"/>
    </g>
    <g class="hv1">
    <use href="#hat-tp10"/>
    </g>
    <g class="hv2">
    <use href="#hat-tp30"/>
    </g>
    <g class="hv3">
    <use href="#hat-tp50"/>
    </g>
    <g class="hv4">
    <use href="#hat-tp70"/>
    </g>
    <g class="hv5">
    <use href="#hat-tp75"/>
    </g>
    <g class="hv6">
    <use href="#hat-tp75-ns"/>
    </g>
    <g class="hv7">
    <use href="#hat-tm10"/>
    </g>
    <g class="hv8">
    <use href="#hat-tm20"/>
    </g>
    <g class="hv9">
    <use href="#hat-tp15-ns"/>
    </g>
    <g class="hv10">
    <use href="#hat-tp15"/>
    </g>
    </g>
    <g class="ar-r">
    <g class="ar-r-a">
    <use href="#arm-r"/>
    </g>
    <g class="ar-r-f">
    <use href="#arm-r-free"/>
    </g>
    </g>
    <g class="spv0">
    <g class="spm0">
    <use href="#spk-dot-FFF3A8"/>
    </g>
    </g>
    <g class="spv1">
    <g class="spm1">
    <use href="#spk-plus-FFFFFF"/>
    </g>
    </g>
    <g class="spv2">
    <g class="spm2">
    <use href="#spk-dot-DCC5FF"/>
    </g>
    </g>
    <g class="spv3">
    <g class="spm3">
    <use href="#spk-dot-FFF3A8"/>
    </g>
    </g>
    <g class="spv4">
    <g class="spm4">
    <use href="#spk-dot-FFFFFF"/>
    </g>
    </g>
    </g>
  </g>
</svg>
