<svg xmlns="http://www.w3.org/2000/svg" viewBox="-15 -25 45 45" width="500" height="500">
  <!-- Clawd v2 wake: 1.5 s one-shot at 8 fps (12 frames). Same beats as clawd-wake.svg: flat on the ground (the sleeping sploot pose), pop up with a stretch and wide eyes, settle with a squash, one blink. -->
  <defs>
    <style>
      .tv0 { animation: tv0 1.5s infinite step-end; }
      .tv1 { animation: tv1 1.5s infinite step-end; }
      .tv2 { animation: tv2 1.5s infinite step-end; }
      .tv3 { animation: tv3 1.5s infinite step-end; }
      .tv4 { animation: tv4 1.5s infinite step-end; }
      .tv5 { animation: tv5 1.5s infinite step-end; }
      .tv6 { animation: tv6 1.5s infinite step-end; }
      .tmv { animation: tmv 1.5s infinite step-end; }
      .shw0 { animation: shw0 1.5s infinite step-end; }
      .shw1 { animation: shw1 1.5s infinite step-end; }
      .shw2 { animation: shw2 1.5s infinite step-end; }
      .shw3 { animation: shw3 1.5s infinite step-end; }
      .shw4 { animation: shw4 1.5s infinite step-end; }
      .shw5 { animation: shw5 1.5s infinite step-end; }
      .lg1m4 { animation: lg1m4 1.5s infinite step-end; }
      .lg1v4 { animation: lg1v4 1.5s infinite step-end; }
      .lg1m7 { animation: lg1m7 1.5s infinite step-end; }
      .lg1v7 { animation: lg1v7 1.5s infinite step-end; }
      .lg1m8 { animation: lg1m8 1.5s infinite step-end; }
      .lg1v8 { animation: lg1v8 1.5s infinite step-end; }
      .lg2m4 { animation: lg2m4 1.5s infinite step-end; }
      .lg2v4 { animation: lg2v4 1.5s infinite step-end; }
      .lg2m7 { animation: lg2m7 1.5s infinite step-end; }
      .lg2v7 { animation: lg2v7 1.5s infinite step-end; }
      .lg2m8 { animation: lg2m8 1.5s infinite step-end; }
      .lg2v8 { animation: lg2v8 1.5s infinite step-end; }
      .lg3m4 { animation: lg3m4 1.5s infinite step-end; }
      .lg3v4 { animation: lg3v4 1.5s infinite step-end; }
      .lg3m7 { animation: lg3m7 1.5s infinite step-end; }
      .lg3v7 { animation: lg3v7 1.5s infinite step-end; }
      .lg3m8 { animation: lg3m8 1.5s infinite step-end; }
      .lg3v8 { animation: lg3v8 1.5s infinite step-end; }
      .lg4m4 { animation: lg4m4 1.5s infinite step-end; }
      .lg4v4 { animation: lg4v4 1.5s infinite step-end; }
      .lg4m7 { animation: lg4m7 1.5s infinite step-end; }
      .lg4v7 { animation: lg4v7 1.5s infinite step-end; }
      .lg4m8 { animation: lg4m8 1.5s infinite step-end; }
      .lg4v8 { animation: lg4v8 1.5s infinite step-end; }
      .wey-eyes-slit { animation: wey-eyes-slit 1.5s infinite step-end; }
      .wey-eyes-blob { animation: wey-eyes-blob 1.5s infinite step-end; }
      .wey-eyes-open { animation: wey-eyes-open 1.5s infinite step-end; }
      .wey-eyes-shut-hi { animation: wey-eyes-shut-hi 1.5s infinite step-end; }
      .wey-mv { animation: wey-mv 1.5s infinite step-end; }
      .ar-l { animation: ar-l 1.5s infinite step-end; }
      .ar-r { animation: ar-r 1.5s infinite step-end; }
      @keyframes tv0 {
        0% { opacity: 1; }
        12.5% { opacity: 0; }
      }
      @keyframes tv1 {
        0% { opacity: 0; }
        12.5% { opacity: 1; }
        20.8333% { opacity: 0; }
      }
      @keyframes tv2 {
        0% { opacity: 0; }
        20.8333% { opacity: 1; }
        29.1667% { opacity: 0; }
      }
      @keyframes tv3 {
        0% { opacity: 0; }
        29.1667% { opacity: 1; }
        37.5% { opacity: 0; }
      }
      @keyframes tv4 {
        0% { opacity: 0; }
        37.5% { opacity: 1; }
        45.8333% { opacity: 0; }
      }
      @keyframes tv5 {
        0% { opacity: 0; }
        45.8333% { opacity: 1; }
        54.1667% { opacity: 0; }
      }
      @keyframes tv6 {
        0% { opacity: 0; }
        54.1667% { opacity: 1; }
      }
      @keyframes tmv {
        0% { transform: translate(0px, 8px); }
        12.5% { transform: translate(0px, -3px); }
        20.8333% { transform: translate(0px, -8px); }
        29.1667% { transform: translate(0px, -12px); }
        37.5% { transform: translate(0px, -8px); }
        45.8333% { transform: translate(0px, -4px); }
        54.1667% { transform: translate(0px, -1px); }
        62.5% { transform: translate(0px, 0px); }
      }
      @keyframes shw0 {
        0% { opacity: 1; }
        4.1667% { opacity: 0; }
      }
      @keyframes shw1 {
        0% { opacity: 0; }
        4.1667% { opacity: 1; }
        12.5% { opacity: 0; }
      }
      @keyframes shw2 {
        0% { opacity: 0; }
        12.5% { opacity: 1; }
        20.8333% { opacity: 0; }
      }
      @keyframes shw3 {
        0% { opacity: 0; }
        20.8333% { opacity: 1; }
        29.1667% { opacity: 0; }
        45.8333% { opacity: 1; }
      }
      @keyframes shw4 {
        0% { opacity: 0; }
        29.1667% { opacity: 1; }
        37.5% { opacity: 0; }
      }
      @keyframes shw5 {
        0% { opacity: 0; }
        37.5% { opacity: 1; }
        45.8333% { opacity: 0; }
      }
      @keyframes lg1m4 {
        0% { transform: translate(0px, 0px); }
        12.5% { transform: translate(0px, -7px); }
        20.8333% { transform: translate(0px, 0px); }
      }
      @keyframes lg1v4 {
        0% { opacity: 0; }
        12.5% { opacity: 1; }
        20.8333% { opacity: 0; }
      }
      @keyframes lg1m7 {
        0% { transform: translate(0px, 0px); }
        20.8333% { transform: translate(0px, -6px); }
        29.1667% { transform: translate(0px, 0px); }
        45.8333% { transform: translate(0px, -3px); }
        54.1667% { transform: translate(0px, -1px); }
        62.5% { transform: translate(0px, 0px); }
      }
      @keyframes lg1v7 {
        0% { opacity: 0; }
        20.8333% { opacity: 1; }
        29.1667% { opacity: 0; }
        45.8333% { opacity: 1; }
      }
      @keyframes lg1m8 {
        0% { transform: translate(0px, 0px); }
        29.1667% { transform: translate(0px, -8px); }
        37.5% { transform: translate(0px, -5px); }
        45.8333% { transform: translate(0px, 0px); }
      }
      @keyframes lg1v8 {
        0% { opacity: 0; }
        29.1667% { opacity: 1; }
        45.8333% { opacity: 0; }
      }
      @keyframes lg2m4 {
        0% { transform: translate(0px, 0px); }
        12.5% { transform: translate(0px, -7px); }
        20.8333% { transform: translate(0px, 0px); }
      }
      @keyframes lg2v4 {
        0% { opacity: 0; }
        12.5% { opacity: 1; }
        20.8333% { opacity: 0; }
      }
      @keyframes lg2m7 {
        0% { transform: translate(0px, 0px); }
        20.8333% { transform: translate(0px, -6px); }
        29.1667% { transform: translate(0px, 0px); }
        45.8333% { transform: translate(0px, -3px); }
        54.1667% { transform: translate(0px, -1px); }
        62.5% { transform: translate(0px, 0px); }
      }
      @keyframes lg2v7 {
        0% { opacity: 0; }
        20.8333% { opacity: 1; }
        29.1667% { opacity: 0; }
        45.8333% { opacity: 1; }
      }
      @keyframes lg2m8 {
        0% { transform: translate(0px, 0px); }
        29.1667% { transform: translate(0px, -8px); }
        37.5% { transform: translate(0px, -5px); }
        45.8333% { transform: translate(0px, 0px); }
      }
      @keyframes lg2v8 {
        0% { opacity: 0; }
        29.1667% { opacity: 1; }
        45.8333% { opacity: 0; }
      }
      @keyframes lg3m4 {
        0% { transform: translate(0px, 0px); }
        12.5% { transform: translate(0px, -7px); }
        20.8333% { transform: translate(0px, 0px); }
      }
      @keyframes lg3v4 {
        0% { opacity: 0; }
        12.5% { opacity: 1; }
        20.8333% { opacity: 0; }
      }
      @keyframes lg3m7 {
        0% { transform: translate(0px, 0px); }
        20.8333% { transform: translate(0px, -6px); }
        29.1667% { transform: translate(0px, 0px); }
        45.8333% { transform: translate(0px, -3px); }
        54.1667% { transform: translate(0px, -1px); }
        62.5% { transform: translate(0px, 0px); }
      }
      @keyframes lg3v7 {
        0% { opacity: 0; }
        20.8333% { opacity: 1; }
        29.1667% { opacity: 0; }
        45.8333% { opacity: 1; }
      }
      @keyframes lg3m8 {
        0% { transform: translate(0px, 0px); }
        29.1667% { transform: translate(0px, -8px); }
        37.5% { transform: translate(0px, -5px); }
        45.8333% { transform: translate(0px, 0px); }
      }
      @keyframes lg3v8 {
        0% { opacity: 0; }
        29.1667% { opacity: 1; }
        45.8333% { opacity: 0; }
      }
      @keyframes lg4m4 {
        0% { transform: translate(0px, 0px); }
        12.5% { transform: translate(0px, -7px); }
        20.8333% { transform: translate(0px, 0px); }
      }
      @keyframes lg4v4 {
        0% { opacity: 0; }
        12.5% { opacity: 1; }
        20.8333% { opacity: 0; }
      }
      @keyframes lg4m7 {
        0% { transform: translate(0px, 0px); }
        20.8333% { transform: translate(0px, -6px); }
        29.1667% { transform: translate(0px, 0px); }
        45.8333% { transform: translate(0px, -3px); }
        54.1667% { transform: translate(0px, -1px); }
        62.5% { transform: translate(0px, 0px); }
      }
      @keyframes lg4v7 {
        0% { opacity: 0; }
        20.8333% { opacity: 1; }
        29.1667% { opacity: 0; }
        45.8333% { opacity: 1; }
      }
      @keyframes lg4m8 {
        0% { transform: translate(0px, 0px); }
        29.1667% { transform: translate(0px, -8px); }
        37.5% { transform: translate(0px, -5px); }
        45.8333% { transform: translate(0px, 0px); }
      }
      @keyframes lg4v8 {
        0% { opacity: 0; }
        29.1667% { opacity: 1; }
        45.8333% { opacity: 0; }
      }
      @keyframes wey-eyes-slit {
        0% { opacity: 1; }
        4.1667% { opacity: 0; }
      }
      @keyframes wey-eyes-blob {
        0% { opacity: 0; }
        4.1667% { opacity: 1; }
        12.5% { opacity: 0; }
      }
      @keyframes wey-eyes-open {
        0% { opacity: 0; }
        12.5% { opacity: 1; }
        54.1667% { opacity: 0; }
        62.5% { opacity: 1; }
      }
      @keyframes wey-eyes-shut-hi {
        0% { opacity: 0; }
        54.1667% { opacity: 1; }
        62.5% { opacity: 0; }
      }
      @keyframes wey-mv {
        0% { transform: translate(0px, 6px); }
        4.1667% { transform: translate(0px, 8px); }
        12.5% { transform: translate(-1px, -3px); }
        20.8333% { transform: translate(-1px, -8px); }
        29.1667% { transform: translate(1px, -12px); }
        37.5% { transform: translate(0px, -8px); }
        45.8333% { transform: translate(0px, -4px); }
        54.1667% { transform: translate(0px, -1px); }
        62.5% { transform: translate(0px, 0px); }
      }
      @keyframes ar-l {
        0% { transform: translate(-2px, 6px); }
        12.5% { transform: translate(-1px, -4px); }
        20.8333% { transform: translate(-1px, -7px); }
        29.1667% { transform: translate(2px, -11px); }
        37.5% { transform: translate(1px, -7px); }
        45.8333% { transform: translate(0px, -4px); }
        54.1667% { transform: translate(0px, -1px); }
        62.5% { transform: translate(0px, 0px); }
      }
      @keyframes ar-r {
        0% { transform: translate(2px, 6px); }
        12.5% { transform: translate(-1px, -4px); }
        20.8333% { transform: translate(-1px, -7px); }
        29.1667% { transform: translate(0px, -11px); }
        37.5% { transform: translate(-1px, -7px); }
        45.8333% { transform: translate(0px, -4px); }
        54.1667% { transform: translate(0px, -1px); }
        62.5% { transform: translate(0px, 0px); }
      }
    </style>
    <!-- ===== rig: shared Clawd v2 parts, identical in every clawd-*-v2.svg (see clawd-static-base-v2.svg) ===== -->
    <!-- body: 1 px outline, light top/left, shade bottom/right, specular dot -->
    <g id="torso">
      <path fill="#DE886D" d="M24 13h1v1h-1zM8 14h16v1h-16zM6 15h18v8h-18zM5 23h1v2h-1z"/>
      <path fill="#B8644B" d="M24 14h1v9h-1zM6 23h19v2h-19z"/>
      <path fill="#6B3122" d="M4 12h22v1h-22zM4 13h1v12h-1zM25 13h1v12h-1zM4 25h22v1h-22z"/>
      <path fill="#F3AC90" d="M5 13h19v1h-19zM5 14h1v9h-1z"/>
      <path fill="#FFD3C2" d="M6 14h2v1h-2z"/>
    </g>
    <!-- left pincer fused with the body (rest spot and sliding along the body side) -->
    <g id="arm-l">
      <path fill="#6B3122" d="M0 15h5v1h-5zM-1 16h1v1h-1zM-1 17h2v1h-2zM1 18h1v2h-1zM-1 20h2v1h-2zM-1 21h1v1h-1zM0 22h5v1h-5z"/>
      <path fill="#F3AC90" d="M1 16h4v1h-4zM1 20h1v1h-1z"/>
      <path fill="#B8644B" d="M0 16h1v1h-1zM1 17h1v1h-1zM0 21h5v1h-5z"/>
      <path fill="#DE886D" d="M2 17h3v4h-3z"/>
    </g>
    <!-- right pincer fused with the body (rest spot and sliding along the body side) -->
    <g id="arm-r">
      <path fill="#B8644B" d="M29 16h1v1h-1zM28 17h1v1h-1zM25 21h5v1h-5z"/>
      <path fill="#6B3122" d="M25 15h5v1h-5zM30 16h1v1h-1zM29 17h2v1h-2zM28 18h1v2h-1zM29 20h2v1h-2zM30 21h1v1h-1zM25 22h5v1h-5z"/>
      <path fill="#F3AC90" d="M25 16h4v1h-4zM28 20h1v1h-1z"/>
      <path fill="#DE886D" d="M25 17h3v4h-3z"/>
    </g>
    <!-- eyes 2x4 with a white highlight -->
    <g id="eyes-open">
      <path fill="#FFFFFF" d="M8 16h1v1h-1zM20 16h1v1h-1z"/>
      <path fill="#1B1311" d="M9 16h1v1h-1zM21 16h1v1h-1zM8 17h2v3h-2zM20 17h2v3h-2z"/>
    </g>
    <!-- eyes as flat 4 px slits -->
    <g id="eyes-slit">
      <path fill="#1B1311" d="M7 19h4v1h-4zM19 19h4v1h-4z"/>
    </g>
    <!-- eyes wide open, 4x4 -->
    <g id="eyes-blob">
      <path fill="#FFFFFF" d="M7 16h1v1h-1zM19 16h1v1h-1z"/>
      <path fill="#1B1311" d="M8 16h3v1h-3zM20 16h3v1h-3zM7 17h4v3h-4zM19 17h4v3h-4z"/>
    </g>
    <!-- eyes shut, line at mid height -->
    <g id="eyes-shut-hi">
      <path fill="#1B1311" d="M8 18h2v1h-2zM20 18h2v1h-2z"/>
    </g>
    <!-- body 26x10 -->
    <g id="torso-26x10">
      <path fill="#6B3122" d="M2 12h26v1h-26zM2 13h1v8h-1zM27 13h1v8h-1zM2 21h26v1h-26z"/>
      <path fill="#DE886D" d="M26 13h1v1h-1zM6 14h20v1h-20zM4 15h22v4h-22zM3 19h1v2h-1z"/>
      <path fill="#B8644B" d="M26 14h1v5h-1zM4 19h23v2h-23z"/>
      <path fill="#F3AC90" d="M3 13h23v1h-23zM3 14h1v5h-1z"/>
      <path fill="#FFD3C2" d="M4 14h2v1h-2z"/>
    </g>
    <!-- leaning body 22x13 -->
    <g id="torso-22x13-lm2m1p0">
      <path fill="#DE886D" d="M5 14h17v1h-17zM5 15h18v7h-18z"/>
      <path fill="#6B3122" d="M2 12h22v1h-22zM2 13h1v2h-1zM23 13h1v2h-1zM3 15h1v7h-1zM24 15h1v7h-1zM4 22h1v2h-1zM25 22h1v2h-1zM4 24h22v1h-22z"/>
      <path fill="#B8644B" d="M3 13h1v1h-1zM22 13h1v2h-1zM23 15h1v7h-1zM4 20h1v2h-1zM5 22h20v2h-20z"/>
      <path fill="#F3AC90" d="M4 13h18v1h-18zM4 15h1v5h-1z"/>
      <path fill="#FFD3C2" d="M3 14h2v1h-2z"/>
    </g>
    <!-- leaning body 22x16 -->
    <g id="torso-22x16-lm2m1p0">
      <path fill="#DE886D" d="M5 14h17v1h-17zM5 15h18v10h-18z"/>
      <path fill="#B8644B" d="M3 13h1v1h-1zM22 13h1v2h-1zM23 15h1v10h-1zM4 23h1v2h-1zM5 25h20v2h-20z"/>
      <path fill="#6B3122" d="M2 12h22v1h-22zM2 13h1v2h-1zM23 13h1v2h-1zM3 15h1v10h-1zM24 15h1v10h-1zM4 25h1v2h-1zM25 25h1v2h-1zM4 27h22v1h-22z"/>
      <path fill="#FFD3C2" d="M3 14h2v1h-2z"/>
      <path fill="#F3AC90" d="M4 13h18v1h-18zM4 15h1v8h-1z"/>
    </g>
    <!-- leaning body 20x17 -->
    <g id="torso-20x17-lp1p1p0">
      <path fill="#DE886D" d="M9 14h15v1h-15zM8 15h16v11h-16z"/>
      <path fill="#F3AC90" d="M7 13h17v1h-17zM7 15h1v11h-1z"/>
      <path fill="#B8644B" d="M24 13h1v13h-1zM6 26h18v2h-18z"/>
      <path fill="#6B3122" d="M6 12h20v1h-20zM6 13h1v13h-1zM25 13h1v13h-1zM5 26h1v2h-1zM24 26h1v2h-1zM5 28h20v1h-20z"/>
      <path fill="#FFD3C2" d="M7 14h2v1h-2z"/>
    </g>
    <!-- body 20x16 -->
    <g id="torso-20x16">
      <path fill="#DE886D" d="M23 13h1v1h-1zM9 14h14v1h-14zM7 15h16v10h-16zM6 25h1v2h-1z"/>
      <path fill="#B8644B" d="M23 14h1v11h-1zM7 25h17v2h-17z"/>
      <path fill="#6B3122" d="M5 12h20v1h-20zM5 13h1v14h-1zM24 13h1v14h-1zM5 27h20v1h-20z"/>
      <path fill="#F3AC90" d="M6 13h17v1h-17zM6 14h1v11h-1z"/>
      <path fill="#FFD3C2" d="M7 14h2v1h-2z"/>
    </g>
    <!-- leaning body 22x15 -->
    <g id="torso-22x15-lm1p0p0">
      <path fill="#DE886D" d="M6 14h17v1h-17zM6 15h18v9h-18z"/>
      <path fill="#6B3122" d="M3 12h22v1h-22zM3 13h1v2h-1zM24 13h1v2h-1zM4 15h1v11h-1zM25 15h1v11h-1zM4 26h22v1h-22z"/>
      <path fill="#B8644B" d="M4 13h1v1h-1zM23 13h1v2h-1zM24 15h1v9h-1zM5 24h20v2h-20z"/>
      <path fill="#F3AC90" d="M5 13h18v1h-18zM5 15h1v9h-1z"/>
      <path fill="#FFD3C2" d="M4 14h2v1h-2z"/>
    </g>
    <!-- ground shadow 34 wide -->
    <g id="shadow-w34">
      <path fill="#000000" fill-opacity="0.3" d="M-2 30h34v1h-34z"/>
      <path fill="#000000" fill-opacity="0.15" d="M1 31h28v1h-28z"/>
    </g>
    <!-- ground shadow 28 wide -->
    <g id="shadow-w28">
      <path fill="#000000" fill-opacity="0.3" d="M1 30h28v1h-28z"/>
      <path fill="#000000" fill-opacity="0.15" d="M4 31h22v1h-22z"/>
    </g>
    <!-- ground shadow 22 wide -->
    <g id="shadow-w22">
      <path fill="#000000" fill-opacity="0.3" d="M4 30h22v1h-22z"/>
      <path fill="#000000" fill-opacity="0.15" d="M7 31h16v1h-16z"/>
    </g>
    <!-- ground shadow 18 wide -->
    <g id="shadow-w18">
      <path fill="#000000" fill-opacity="0.3" d="M6 30h18v1h-18z"/>
      <path fill="#000000" fill-opacity="0.15" d="M9 31h12v1h-12z"/>
    </g>
    <!-- ground shadow 14 wide -->
    <g id="shadow-w14">
      <path fill="#000000" fill-opacity="0.3" d="M8 30h14v1h-14z"/>
      <path fill="#000000" fill-opacity="0.15" d="M11 31h8v1h-8z"/>
    </g>
    <!-- ground shadow 16 wide -->
    <g id="shadow-w16">
      <path fill="#000000" fill-opacity="0.3" d="M7 30h16v1h-16z"/>
      <path fill="#000000" fill-opacity="0.15" d="M10 31h10v1h-10z"/>
    </g>
    <!-- leg 1, 4 px long -->
    <g id="leg1-n4">
      <path fill="#B8644B" d="M6 26h1v3h-1z"/>
      <path fill="#6B3122" d="M7 26h1v3h-1zM6 29h2v1h-2z"/>
    </g>
    <!-- leg 1, 7 px long -->
    <g id="leg1-n7">
      <path fill="#B8644B" d="M6 23h1v6h-1z"/>
      <path fill="#6B3122" d="M7 23h1v6h-1zM6 29h2v1h-2z"/>
    </g>
    <!-- leg 1, 8 px long -->
    <g id="leg1-n8">
      <path fill="#B8644B" d="M6 22h1v7h-1z"/>
      <path fill="#6B3122" d="M7 22h1v7h-1zM6 29h2v1h-2z"/>
    </g>
    <!-- leg 2, 4 px long -->
    <g id="leg2-n4">
      <path fill="#B8644B" d="M10 26h1v3h-1z"/>
      <path fill="#6B3122" d="M11 26h1v3h-1zM10 29h2v1h-2z"/>
    </g>
    <!-- leg 2, 7 px long -->
    <g id="leg2-n7">
      <path fill="#B8644B" d="M10 23h1v6h-1z"/>
      <path fill="#6B3122" d="M11 23h1v6h-1zM10 29h2v1h-2z"/>
    </g>
    <!-- leg 2, 8 px long -->
    <g id="leg2-n8">
      <path fill="#B8644B" d="M10 22h1v7h-1z"/>
      <path fill="#6B3122" d="M11 22h1v7h-1zM10 29h2v1h-2z"/>
    </g>
    <!-- leg 3, 4 px long -->
    <g id="leg3-n4">
      <path fill="#B8644B" d="M18 26h1v3h-1z"/>
      <path fill="#6B3122" d="M19 26h1v3h-1zM18 29h2v1h-2z"/>
    </g>
    <!-- leg 3, 7 px long -->
    <g id="leg3-n7">
      <path fill="#B8644B" d="M18 23h1v6h-1z"/>
      <path fill="#6B3122" d="M19 23h1v6h-1zM18 29h2v1h-2z"/>
    </g>
    <!-- leg 3, 8 px long -->
    <g id="leg3-n8">
      <path fill="#B8644B" d="M18 22h1v7h-1z"/>
      <path fill="#6B3122" d="M19 22h1v7h-1zM18 29h2v1h-2z"/>
    </g>
    <!-- leg 4, 4 px long -->
    <g id="leg4-n4">
      <path fill="#B8644B" d="M22 26h1v3h-1z"/>
      <path fill="#6B3122" d="M23 26h1v3h-1zM22 29h2v1h-2z"/>
    </g>
    <!-- leg 4, 7 px long -->
    <g id="leg4-n7">
      <path fill="#B8644B" d="M22 23h1v6h-1z"/>
      <path fill="#6B3122" d="M23 23h1v6h-1zM22 29h2v1h-2z"/>
    </g>
    <!-- leg 4, 8 px long -->
    <g id="leg4-n8">
      <path fill="#B8644B" d="M22 22h1v7h-1z"/>
      <path fill="#6B3122" d="M23 22h1v7h-1zM22 29h2v1h-2z"/>
    </g>
  </defs>
  <g transform="scale(.5)">
    <g class="shw0">
    <use href="#shadow-w34"/>
    </g>
    <g class="shw1">
    <use href="#shadow-w28"/>
    </g>
    <g class="shw2">
    <use href="#shadow-w22"/>
    </g>
    <g class="shw3">
    <use href="#shadow-w18"/>
    </g>
    <g class="shw4">
    <use href="#shadow-w14"/>
    </g>
    <g class="shw5">
    <use href="#shadow-w16"/>
    </g>
    <g class="lg1v4">
    <g class="lg1m4">
    <use href="#leg1-n4"/>
    </g>
    </g>
    <g class="lg1v7">
    <g class="lg1m7">
    <use href="#leg1-n7"/>
    </g>
    </g>
    <g class="lg1v8">
    <g class="lg1m8">
    <use href="#leg1-n8"/>
    </g>
    </g>
    <g class="lg2v4">
    <g class="lg2m4">
    <use href="#leg2-n4"/>
    </g>
    </g>
    <g class="lg2v7">
    <g class="lg2m7">
    <use href="#leg2-n7"/>
    </g>
    </g>
    <g class="lg2v8">
    <g class="lg2m8">
    <use href="#leg2-n8"/>
    </g>
    </g>
    <g class="lg3v4">
    <g class="lg3m4">
    <use href="#leg3-n4"/>
    </g>
    </g>
    <g class="lg3v7">
    <g class="lg3m7">
    <use href="#leg3-n7"/>
    </g>
    </g>
    <g class="lg3v8">
    <g class="lg3m8">
    <use href="#leg3-n8"/>
    </g>
    </g>
    <g class="lg4v4">
    <g class="lg4m4">
    <use href="#leg4-n4"/>
    </g>
    </g>
    <g class="lg4v7">
    <g class="lg4m7">
    <use href="#leg4-n7"/>
    </g>
    </g>
    <g class="lg4v8">
    <g class="lg4m8">
    <use href="#leg4-n8"/>
    </g>
    </g>
    <g class="tmv">
    <g class="tv0">
    <use href="#torso-26x10"/>
    </g>
    <g class="tv1">
    <use href="#torso-22x13-lm2m1p0"/>
    </g>
    <g class="tv2">
    <use href="#torso-22x16-lm2m1p0"/>
    </g>
    <g class="tv3">
    <use href="#torso-20x17-lp1p1p0"/>
    </g>
    <g class="tv4">
    <use href="#torso-20x16"/>
    </g>
    <g class="tv5">
    <use href="#torso-22x15-lm1p0p0"/>
    </g>
    <g class="tv6">
    <use href="#torso"/>
    </g>
    </g>
    <g class="ar-l">
    <use href="#arm-l"/>
    </g>
    <g class="ar-r">
    <use href="#arm-r"/>
    </g>
    <g class="wey-mv">
    <g class="wey-eyes-slit">
    <use href="#eyes-slit"/>
    </g>
    <g class="wey-eyes-blob">
    <use href="#eyes-blob"/>
    </g>
    <g class="wey-eyes-open">
    <use href="#eyes-open"/>
    </g>
    <g class="wey-eyes-shut-hi">
    <use href="#eyes-shut-hi"/>
    </g>
    </g>
  </g>
</svg>
